<svg width="1em" height="1em" viewBox="0 0 188 26" fill="none" xmlns="http://www.w3.org/2000/svg">
    <path d="M5.21231 5.28999H0.481548C0.412498 5.29078 0.344103 5.27654 0.281107 5.24826C0.21811 5.21998 0.162019 5.17833 0.116725 5.12621C0.0714314 5.07408 0.0380182 5.01273 0.0188032 4.9464C-0.000411771 4.88008 -0.00496858 4.81036 0.00544886 4.7421L0.783833 0.377856C0.80328 0.271783 0.8593 0.175885 0.942146 0.106846C1.02499 0.0378082 1.12942 0 1.23726 0L6.14939 0L5.21231 5.28999Z" fill="#0064FF"/>
    <path d="M8.52984 16.5117H3.22852L5.21226 5.29688H10.5136L8.52984 16.5117Z" fill="url(#paint0_linear_18110_34031)"/>
    <path d="M7.20647 21.8093H2.85735C2.78839 21.8085 2.72041 21.7929 2.65803 21.7635C2.59565 21.7341 2.54035 21.6915 2.49589 21.6388C2.45142 21.5861 2.41884 21.5244 2.40036 21.458C2.38188 21.3916 2.37794 21.3219 2.38881 21.2538L3.23142 16.5117H8.52142L7.65235 21.4239C7.63472 21.53 7.58048 21.6267 7.49905 21.6971C7.41761 21.7675 7.3141 21.8072 7.20647 21.8093V21.8093Z" fill="#009BFF"/>
    <filter id="textShadow" x="-50%" y="-50%" width="200%" height="200%">
        <feOffset result="offOut" in="SourceAlpha" dx="1" dy="1" /> <!-- 阴影偏移 -->
        <feGaussianBlur result="blurOut" in="offOut" stdDeviation="0.5" /> <!-- 阴影模糊 -->
        <feBlend in="SourceGraphic" in2="blurOut" mode="normal" /> <!-- 混合模式 -->
    </filter>
    <text x="33" y="20" font-size="20" fill="currentColor" font-family="Arial, sans-serif" font-weight="normal" font-style="italic" filter="url(#textShadow)">
        PnSql Workflow
    </text>
    <path d="M20.0919 5.28999H5.21191L6.149 0H20.8476C20.9168 0.00013044 20.9851 0.0153276 21.0478 0.0445343C21.1105 0.0737409 21.166 0.116256 21.2106 0.169121C21.2552 0.221986 21.2878 0.283932 21.306 0.35065C21.3242 0.417368 21.3277 0.487255 21.3162 0.555449L20.5416 4.91213C20.5236 5.01823 20.4685 5.11448 20.3862 5.1837C20.3038 5.25293 20.1995 5.2906 20.0919 5.28999V5.28999Z" fill="url(#paint1_linear_18110_34031)"/>
    <defs>
        <linearGradient id="paint0_linear_18110_34031" x1="7.81543" y1="4.88815" x2="7.92589" y2="15.4398" gradientUnits="userSpaceOnUse">
            <stop stop-color="#009BFF"/>
            <stop offset="0.35" stop-color="#0081FE"/>
            <stop offset="0.75" stop-color="#006AFD"/>
            <stop offset="1" stop-color="#0062FD"/>
        </linearGradient>
        <linearGradient id="paint1_linear_18110_34031" x1="5.68577" y1="2.65136" x2="20.3785" y2="5.41299" gradientUnits="userSpaceOnUse">
            <stop offset="0.03" stop-color="#E9FFFF"/>
            <stop offset="0.17" stop-color="#C4FAC9"/>
            <stop offset="0.33" stop-color="#A0F694"/>
            <stop offset="0.48" stop-color="#82F269"/>
            <stop offset="0.63" stop-color="#6AEF47"/>
            <stop offset="0.76" stop-color="#5AED2F"/>
            <stop offset="0.89" stop-color="#4FEB20"/>
            <stop offset="1" stop-color="#4CEB1B"/>
        </linearGradient>
    </defs>
</svg>
